<svg width="284" height="237" viewBox="0 0 284 237" fill="none" xmlns="http://www.w3.org/2000/svg">
<path fill-rule="evenodd" clip-rule="evenodd" d="M95.2129 179.672H74.8259L68.376 199.022L65.3962 207.962H29.2051V151.761C38.5593 154.193 52.0815 156.098 71.6386 156.098C75.39 156.098 78.9877 154.608 81.6403 151.955C84.293 149.303 85.7832 145.705 85.7832 141.954C85.7832 138.202 84.293 134.605 81.6403 131.952C78.9877 129.299 75.39 127.809 71.6386 127.809C51.4025 127.809 39.9172 125.546 33.9576 123.717C32.6474 123.325 31.3625 122.852 30.1103 122.302C31.5742 116.089 34.7418 110.407 39.2571 105.895C40.6527 104.518 41.9917 103.066 43.293 101.595C72.0536 109.761 107.471 113.665 142.361 113.665C177.232 113.665 212.669 109.761 241.43 101.595C242.731 103.085 244.07 104.518 245.465 105.895C250.011 110.459 253.16 116.154 254.612 122.302C253.764 122.679 252.519 123.189 250.765 123.717C244.805 125.546 233.32 127.809 213.084 127.809C209.333 127.809 205.735 129.299 203.082 131.952C200.43 134.605 198.939 138.202 198.939 141.954C198.939 145.705 200.43 149.303 203.082 151.955C205.735 154.608 209.333 156.098 213.084 156.098C232.641 156.098 246.163 154.193 255.518 151.761V207.962H219.326L216.347 199.022L209.897 179.672H95.2129ZM225.795 76.474C201.655 82.3204 172.235 85.3756 142.361 85.3756C112.488 85.3756 83.0674 82.3204 58.9274 76.474C59.5121 75.0595 60.059 73.6451 60.5871 72.2118L69.0361 48.5056C72.4307 38.9816 79.7859 33.3049 87.1411 32.2299C123.763 27.0124 160.94 27.0124 197.563 32.2299C204.956 33.3049 212.273 38.9816 215.668 48.5056L224.154 72.2118C224.664 73.6451 225.21 75.0595 225.795 76.474ZM194.639 223.351L189.51 207.962H95.2129L90.0831 223.351C88.8318 227.108 86.4297 230.375 83.2174 232.691C80.005 235.006 76.1454 236.252 72.1856 236.251H19.7754C14.7736 236.251 9.97662 234.264 6.4398 230.727C2.90298 227.19 0.916016 222.393 0.916016 217.391V130.167C0.916016 113.57 7.5168 97.6342 19.2473 85.9037C22.2846 82.8712 25.0021 79.5344 27.3568 75.9459H15.0605C11.3092 75.9459 7.71147 74.4557 5.05885 71.8031C2.40624 69.1505 0.916016 65.5528 0.916016 61.8014C0.916016 58.0501 2.40624 54.4523 5.05885 51.7997C7.71147 49.1471 11.3092 47.6569 15.0605 47.6569H39.3137L42.4066 38.9816C48.8754 20.8766 64.0572 6.9961 83.0863 4.24263C122.404 -1.36603 162.319 -1.36603 201.636 4.24263C220.665 6.9961 235.847 20.8766 242.316 39.0004L245.409 47.6569H269.662C273.413 47.6569 277.011 49.1471 279.664 51.7997C282.316 54.4523 283.807 58.0501 283.807 61.8014C283.807 65.5528 282.316 69.1505 279.664 71.8031C277.011 74.4557 273.413 75.9459 269.662 75.9459H257.385C259.723 79.5292 262.439 82.8673 265.475 85.9037C277.212 97.6444 283.806 113.566 283.807 130.167V217.391C283.807 222.393 281.82 227.19 278.283 230.727C274.746 234.264 269.949 236.251 264.947 236.251H212.518C208.562 236.248 204.706 235 201.498 232.685C198.289 230.37 195.89 227.105 194.639 223.351Z" fill="black"/>
</svg>
