<svg width="258" height="258" viewBox="0 0 258 258" fill="none" xmlns="http://www.w3.org/2000/svg">
<path fill-rule="evenodd" clip-rule="evenodd" d="M18.3926 81.1245C18.3926 58.6296 24.0102 43.4028 33.6765 33.7366C43.3428 24.0703 58.5695 18.4526 81.0645 18.4526H176.564C199.059 18.4526 214.286 24.0703 223.952 33.7366C233.619 43.4028 239.236 58.6296 239.236 81.1245V140.812C239.236 163.307 233.619 178.534 223.952 188.2C214.286 197.866 199.059 203.484 176.564 203.484H170.596C164.055 203.484 157.853 206.616 153.918 211.795L153.883 211.84L135.977 235.715C133.48 239.044 130.799 240.013 128.814 240.013C126.829 240.013 124.149 239.044 121.652 235.715L103.777 211.882C101.713 209.073 98.8278 207.083 96.2771 205.818C93.6939 204.537 90.4093 203.484 87.0332 203.484H81.0645C57.3478 203.484 42.4928 200.364 33.2414 192.269C24.2857 184.433 18.3926 169.884 18.3926 140.812V81.1245ZM81.0645 0.546387C55.8094 0.546387 35.2236 6.86622 21.0149 21.0749C6.80616 35.2837 0.486328 55.8694 0.486328 81.1245V140.812C0.486328 171.428 6.53068 192.691 21.45 205.745C36.0736 218.541 57.0311 221.39 81.0645 221.39H86.9728C87.0051 221.395 87.1077 221.41 87.2806 221.457C87.5742 221.536 87.9402 221.671 88.3241 221.861C88.7089 222.052 89.0222 222.254 89.2381 222.422C89.3258 222.49 89.3796 222.539 89.4061 222.564L89.4207 222.584L107.327 246.459C112.709 253.635 120.414 257.919 128.814 257.919C137.215 257.919 144.92 253.635 150.302 246.459L168.174 222.629L168.185 222.614C168.787 221.833 169.741 221.39 170.596 221.39H176.564C201.82 221.39 222.405 215.07 236.614 200.862C250.823 186.653 257.143 166.067 257.143 140.812V81.1245C257.143 55.8694 250.823 35.2837 236.614 21.0749C222.405 6.86622 201.82 0.546387 176.564 0.546387H81.0645ZM176.524 104.999C169.931 104.999 164.587 110.343 164.587 116.936C164.587 123.529 169.931 128.874 176.524 128.874H176.632C183.224 128.874 188.569 123.529 188.569 116.936C188.569 110.343 183.224 104.999 176.632 104.999H176.524ZM116.813 116.936C116.813 110.343 122.158 104.999 128.751 104.999H128.858C135.451 104.999 140.796 110.343 140.796 116.936C140.796 123.529 135.451 128.874 128.858 128.874H128.751C122.158 128.874 116.813 123.529 116.813 116.936ZM81.0008 104.999C74.4079 104.999 69.0633 110.343 69.0633 116.936C69.0633 123.529 74.4079 128.874 81.0008 128.874H81.1081C87.701 128.874 93.0456 123.529 93.0456 116.936C93.0456 110.343 87.701 104.999 81.1081 104.999H81.0008Z" fill="black"/>
</svg>
