<svg width="234" height="243" viewBox="0 0 234 243" fill="none" xmlns="http://www.w3.org/2000/svg">
<path d="M124.502 21.4988C122.478 19.7768 119.907 18.8312 117.25 18.8312C114.593 18.8312 112.022 19.7768 109.998 21.4988L22.705 95.7023C21.469 96.7538 20.4765 98.0616 19.7963 99.5349C19.1161 101.008 18.7644 102.612 18.7656 104.235V220.258C18.7656 221.445 19.2373 222.584 20.0768 223.424C20.9163 224.263 22.0549 224.735 23.2422 224.735H68.0078C69.1951 224.735 70.3337 224.263 71.1732 223.424C72.0127 222.584 72.4844 221.445 72.4844 220.258V157.586C72.4844 151.65 74.8426 145.957 79.0401 141.759C83.2377 137.562 88.9309 135.203 94.8672 135.203H139.669C142.608 135.203 145.519 135.782 148.234 136.907C150.95 138.032 153.417 139.681 155.496 141.759C157.574 143.838 159.223 146.305 160.348 149.021C161.472 151.736 162.051 154.647 162.051 157.586V220.258C162.051 221.445 162.523 222.584 163.363 223.424C164.202 224.263 165.341 224.735 166.528 224.735H211.258C212.445 224.735 213.584 224.263 214.423 223.424C215.263 222.584 215.734 221.445 215.734 220.258V104.226C215.734 102.604 215.382 101.002 214.702 99.5308C214.022 98.0592 213.03 96.7528 211.795 95.7023L124.502 21.4988ZM98.4037 7.86315C103.665 3.39073 110.345 0.935059 117.25 0.935059C124.155 0.935059 130.835 3.39073 136.096 7.86315L223.389 82.0577C226.602 84.7891 229.183 88.1863 230.953 92.014C232.723 95.8417 233.64 100.008 233.641 104.226V220.258C233.641 226.194 231.282 231.888 227.085 236.085C222.887 240.283 217.194 242.641 211.258 242.641H166.528C160.592 242.641 154.899 240.283 150.701 236.085C146.503 231.888 144.145 226.194 144.145 220.258V157.586C144.145 156.399 143.674 155.26 142.834 154.421C141.995 153.581 140.856 153.11 139.669 153.11H94.8672C93.6799 153.11 92.5413 153.581 91.7018 154.421C90.8623 155.26 90.3906 156.399 90.3906 157.586V220.258C90.3906 226.194 88.0324 231.888 83.8349 236.085C79.6373 240.283 73.9441 242.641 68.0078 242.641H23.2422C17.3059 242.641 11.6127 240.283 7.41515 236.085C3.21756 231.888 0.859375 226.194 0.859375 220.258V104.226C0.859611 100.008 1.77652 95.8417 3.5466 92.014C5.31668 88.1863 7.89763 84.7891 11.1107 82.0577L98.4037 7.86315Z" fill="black"/>
</svg>
